<?xml version="1.0" encoding="UTF-8"?>
<svg width="100mm" height="100mm" version="1.1" viewBox="0 0 100 100" xml:space="preserve" xmlns="http://www.w3.org/2000/svg"><g transform="matrix(1.9885 0 0 1.9885 -31.371 -2.3975)"><path d="m43.372 26.909c-0.6791-0.0531-0.99723-0.16786-1.3048-0.47071-0.34199-0.33672-0.49302-0.63068-0.56813-1.1058-0.06029-0.38136-0.09303-1.4608-0.09421-3.1058l-0.0011-1.551h6.2984v6.2669l-2.0076-0.0045c-1.1042-0.0024-2.1493-0.01556-2.3225-0.02911z" stroke="#000" stroke-linecap="round" stroke-linejoin="round" stroke-width=".47598" style="font-variation-settings:'wght' 700;paint-order:stroke fill markers"/><path d="m48.962 27.085v-6.4086h12.724l-0.01826 1.0314c-0.02503 1.4137-0.067 2.2517-0.12501 2.4957-0.06786 0.28543-0.38539 0.90894-0.62592 1.2291-0.50671 0.6744-1.1965 1.1537-1.9273 1.3391-0.36448 0.09246-0.78435 0.13031-1.8866 0.17008-0.48498 0.01749-1.1106 0.04064-1.3903 0.05141l-0.50854 0.01961-0.01905 0.50854c-0.01048 0.27969-0.03351 0.99036-0.05118 1.5793-0.0449 1.4968-0.06455 1.6211-0.3467 2.195-0.37537 0.76341-0.93238 1.3596-1.6107 1.7239-0.42171 0.2265-0.7697 0.32775-1.3012 0.3786-0.3348 0.03203-2.0748 0.095-2.6375 0.09546l-0.27556 2.24e-4z" stroke="#000" stroke-linecap="round" stroke-linejoin="round" stroke-width=".47598" style="font-variation-settings:'wght' 700;paint-order:stroke fill markers"/><g transform="matrix(.27719 0 0 .27719 19.919 18.736)"><path d="m60.104 4.8978c-4.5253-2.0764-9.378-3.6062-14.452-4.4824-0.0924-0.01691-0.1847 0.025349-0.2323 0.10987-0.6241 1.11-1.3154 2.5581-1.7995 3.6963-5.4572-0.817-10.886-0.817-16.232 0-0.4842-1.1635-1.2006-2.5863-1.8275-3.6963-0.0476-0.0817-0.1399-0.12396-0.2323-0.10987-5.071 0.87338-9.9237 2.4032-14.452 4.4824-0.0392 0.0169-0.0728 0.0451-0.0951 0.0817-9.2046 13.751-11.726 27.165-10.489 40.412 0.005597 0.0648 0.041978 0.1268 0.092353 0.1662 6.0729 4.4598 11.956 7.1673 17.729 8.9619 0.0924 0.0282 0.1903-0.0056 0.2491-0.0817 1.3657-1.865 2.5831-3.8315 3.6269-5.8995 0.0616-0.1211 0.0028-0.2648-0.1231-0.3127-1.931-0.7325-3.7697-1.6256-5.5384-2.6398-0.1399-0.0817-0.1511-0.2818-0.0224-0.3776 0.3722-0.2789 0.7445-0.5691 1.0999-0.8621 0.0643-0.0535 0.1539-0.0648 0.2295-0.031 11.62 5.3051 24.199 5.3051 35.682 0 0.0756-0.0366 0.1652-0.0253 0.2323 0.0282 0.3555 0.293 0.7277 0.586 1.1027 0.8649 0.1287 0.0958 0.1203 0.2959-0.0196 0.3776-1.7687 1.0339-3.6074 1.9073-5.5412 2.637-0.1259 0.0479-0.1819 0.1944-0.1203 0.3155 1.0662 2.0651 2.2836 4.0316 3.6241 5.8967 0.056 0.0789 0.1567 0.1127 0.2491 0.0845 5.8014-1.7946 11.684-4.5021 17.757-8.9619 0.0532-0.0394 0.0868-0.0986 0.0924-0.1634 1.4804-15.315-2.4796-28.618-10.498-40.412-0.0196-0.0394-0.0531-0.0676-0.0923-0.0845zm-36.379 32.428c-3.4983 0-6.3808-3.2117-6.3808-7.156s2.8266-7.156 6.3808-7.156c3.5821 0 6.4367 3.2399 6.3807 7.156 0 3.9443-2.8266 7.156-6.3807 7.156zm23.592 0c-3.4982 0-6.3807-3.2117-6.3807-7.156s2.8265-7.156 6.3807-7.156c3.5822 0 6.4367 3.2399 6.3808 7.156 0 3.9443-2.7986 7.156-6.3808 7.156z"/></g></g></svg>
