<?xml version="1.0" encoding="UTF-8"?>
<svg width="100mm" height="100mm" version="1.1" viewBox="0 0 100 100" xml:space="preserve" xmlns="http://www.w3.org/2000/svg"><g transform="translate(1.1013 1.3258)"><g transform="matrix(1.5672 0 0 1.5672 34.159 27.138)"><path class="clr-i-outline clr-i-outline-path-1" d="m34.59 23-4.08-5 4-4.9a1.82 1.82 0 0 0 0.23-1.94 1.93 1.93 0 0 0-1.8-1.16h-31a1.91 1.91 0 0 0-1.94 1.88v12.25a1.91 1.91 0 0 0 1.94 1.87h31.11a1.93 1.93 0 0 0 1.77-1.09 1.82 1.82 0 0 0-0.23-1.91zm-32.59 1v-12h30.78l-4.84 5.93 4.91 6.07z"/><polygon class="clr-i-outline clr-i-outline-path-2" points="5 15 5 21.18 6.13 21.18 6.13 16.84 9.39 21.18 10.51 21.18 10.51 15 9.39 15 9.39 19.35 6.13 15"/><polygon class="clr-i-outline clr-i-outline-path-3" points="12.18 21.18 16.84 21.18 16.84 20.16 13.31 20.16 13.31 18.55 16.5 18.55 16.5 17.52 13.31 17.52 13.31 16.03 16.84 16.03 16.84 15 12.18 15"/><polygon class="clr-i-outline clr-i-outline-path-4" points="25.85 15 24.52 19.43 23.06 15 21.84 15 20.37 19.43 19.05 15 17.82 15 19.78 21.18 20.89 21.18 22.45 16.59 24 21.18 25.13 21.18 27.08 15"/><rect width="36" height="36" fill-opacity="0"/></g><path d="m28.4 44.704c0.94849 0 1.7175 0.76899 1.7175 1.7175 0 0.9485-0.76899 1.7175-1.7175 1.7175h-19.465c-0.94852 0-1.7175-0.76899-1.7175-1.7175 0-0.94849 0.7689-1.7175 1.7175-1.7175zm-13.809-23.541c0.60974-0.60974 1.5639-0.66513 2.2362-0.16626l0.19266 0.16626 14.885 14.885c0.67075 0.67076 0.67075 1.758 0 2.4287-0.60974 0.60974-1.5638 0.66522-2.2361 0.16626l-0.19266-0.16626-14.885-14.885c-0.67067-0.67067-0.67067-1.7581 0-2.4289zm25.259-7.3729c0.94849 0 1.7175 0.7689 1.7175 1.7175v19.465c0 0.94849-0.76899 1.7175-1.7175 1.7175-0.9485 0-1.7175-0.76899-1.7175-1.7175v-19.465c0-0.94852 0.76899-1.7175 1.7175-1.7175z"/></g></svg>
