<?xml version="1.0" encoding="UTF-8"?>
<svg width="100mm" height="100mm" version="1.1" viewBox="0 0 100 100" xml:space="preserve" xmlns="http://www.w3.org/2000/svg"><g transform="translate(5.0381 2.5498)"><g transform="matrix(.73098 0 0 .73084 8.4151 2.3002)"><path class="st1" d="m99.938 76.214c-0.18502 3.8891-0.7911 7.8969-1.8853 11.997 0 0-8.6088 25.681-37.402 33.064-4.4428 1.1336-9.3603 1.8325-14.792 1.938-40.737 0.79111-47.039-46.801-45.681-57.941 1.3579-11.153 1.9775-25.708 28.279-65.258-0.06601 0.59325-5.247 45.022 8.8989 65.245 0 0 9.8876 3.3618 20.566-14.831 10.679-18.193 0.98888-42.121 0.39555-42.912-0.56682-0.71192 43.558 27.896 41.62 68.699z" fill-opacity="0" stroke="#000" stroke-width="1.5"/><path class="st2" d="m53.993 40.012c-6.4863 6.8291-10.283 3.6914-10.283 3.6914s9.0966-17.007 9.2285-26.499c0.13253 0.23728 8.5033 14.963 1.0546 22.807z" fill-opacity="0" stroke="#000" stroke-width="1.5"/><path class="st3" d="m99.938 76.214c-0.18502 3.8891-0.7911 7.8969-1.8853 11.997 0 0-8.6088 25.681-37.402 33.064-4.4428 1.1336-9.3603 1.8325-14.792 1.938-40.737 0.79111-47.039-46.801-45.681-57.941 1.3579-11.153 1.9775-25.708 28.279-65.258-0.06601 0.59325-5.247 45.022 8.8989 65.245 0 0 28.252 40.262 62.529 10.995 0 0 0.02749-0.02756 0.05252-0.04z" fill-opacity="0" stroke="#000" stroke-width="1.5"/><path class="st4" d="m60.638 121.26c-4.4428 1.1336-9.3603 1.8325-14.792 1.938-40.737 0.791-47.039-46.801-45.681-57.942 1.3579-11.153 1.9775-25.708 28.279-65.258-0.34277 0.9624-35.978 102.26 32.194 121.26z" fill-opacity="0" stroke="#000" stroke-width="1.5"/><path class="st5" d="m53.993 40.012c-6.4863 6.8291-10.283 3.6914-10.283 3.6914 14.766-9.5712 9.3075-26.275 9.2285-26.499 0.13253 0.23728 8.5033 14.963 1.0546 22.807z" fill-opacity="0" stroke="#000" stroke-width="1.5" style="mix-blend-mode:normal"/><text transform="matrix(1.368 0 0 1.3683 -14.958 -7.3702)" x="71.191895" y="94.662636" fill="#000000" font-family="Comfortaa" font-size="11.354px" stroke-width=".28386" style="font-variant-caps:normal;font-variant-east-asian:normal;font-variant-ligatures:normal;font-variant-numeric:normal;font-variation-settings:'wght' 700;line-height:1.25" xml:space="preserve"><tspan x="71.191895" y="94.662636" font-family="Comfortaa" font-size="11.354px" stroke-width=".28386" style="font-variant-caps:normal;font-variant-east-asian:normal;font-variant-ligatures:normal;font-variant-numeric:normal;font-variation-settings:'wght' 700">v3</tspan></text></g></g></svg>
